<svg width="734" height="640" viewBox="0 0 734 640" fill="none" xmlns="http://www.w3.org/2000/svg" xmlns:xlink="http://www.w3.org/1999/xlink">
<rect width="734" height="640" fill="url(#pattern0)"/>
<defs>
<pattern id="pattern0" patternContentUnits="objectBoundingBox" width="1" height="1">
<use xlink:href="#image0_1_86" transform="translate(-0.00408719) scale(0.0013624 0.0015625)"/>
</pattern>
<image id="image0_1_86" width="740" height="640" xlink:href="img/home 1.png"/>
</defs>
<path d="M222 529L442.8 537L512 523.3V545L443.5 564.7L222 553.7V529Z" fill="#3595F6" fill-opacity="0.75"/>
<path d="M223 529V504L443.3 507.3L513 504V524L443.7 537L223 529Z" fill="#3595F6" fill-opacity="0.75"/>
<path d="M223 503V478H444H513V501L445 508L223 503Z" fill="#3595F6" fill-opacity="0.75"/>
<path d="M223 478V453L444.3 449.3L512 456V478H444" fill="#3595F6" fill-opacity="0.75"/>
<path d="M223 453V427L444.5 423.7L513 434.7V456L444 449.3L223 453Z" fill="#3595F6" fill-opacity="0.75"/>
<path d="M222 427V403.3L443 391L514 414V435.3L443 423L222 427Z" fill="#3595F6" fill-opacity="0.75"/>
<path d="M222 405V380L444.2 363.7L514 392.3V413L443.7 391.3L222 405Z" fill="#3595F6" fill-opacity="0.75"/>
<path d="M222 380V355L444.5 334.7L514 371.3V392L442 363.3L222 380Z" fill="#3595F6" fill-opacity="0.75"/>
<path d="M222 355V331L445 306.3L514 350.3V372L444.7 334L222 355Z" fill="#3595F6" fill-opacity="0.75"/>
<path d="M222 330V306L444.5 277.3L514 328.3V349L443.7 306.7L222 330Z" fill="#3595F6" fill-opacity="0.75"/>
<path d="M221 306V282L443.3 249L514 308.3V328L444 277.3L221 306Z" fill="#3595F6" fill-opacity="0.75"/>
<path d="M222 281V257L443.2 222L513 286V307L444.3 248.7L222 281Z" fill="#3595F6" fill-opacity="0.75"/>
<path d="M222 257V232L444.3 194L513 264.3V285L444 221L222 257Z" fill="#3595F6" fill-opacity="0.75"/>
<path d="M222 233V208L442.8 164.3L513 243.3V266L444 192.7L222 233Z" fill="#3595F6" fill-opacity="0.75"/>
<path d="M223 207V182L443 134L513 219V242L442.3 162.7L223 207Z" fill="#3595F6" fill-opacity="0.75"/>
<path d="M222 181V156L441.8 104L513 196.3V219L443.3 132.7L222 181Z" fill="#3595F6" fill-opacity="0.75"/>
<path d="M222 154V128L444 71.3L513 173V194L443.7 102.3L222 154Z" fill="#3595F6" fill-opacity="0.75"/>
</svg>
